<?xml version="1.0" encoding="utf-8"?>
<!-- Generator: Adobe Illustrator 26.1.0, SVG Export Plug-In . SVG Version: 6.00 Build 0)  -->
<svg version="1.1" id="Layer_1" xmlns="http://www.w3.org/2000/svg" xmlns:xlink="http://www.w3.org/1999/xlink" x="0px" y="0px"
	 viewBox="0 0 440 24" style="enable-background:new 0 0 440 24;" xml:space="preserve">
<style type="text/css">
	.st0{fill-rule:evenodd;clip-rule:evenodd;fill:#231F20;}
</style>
<path class="st0" d="M436.5,6.7c-1.7,0-3.1-1.4-3.1-3.1c0-1.7,1.4-3.1,3.1-3.1c1.7,0,3.1,1.4,3.1,3.1C439.7,5.4,438.3,6.7,436.5,6.7
	L436.5,6.7z M436.5,0.2c-1.9,0-3.5,1.5-3.5,3.4c0,1.9,1.5,3.4,3.5,3.4c1.9,0,3.5-1.5,3.5-3.4C440,1.7,438.5,0.2,436.5,0.2L436.5,0.2
	z M264.5,11.7c-0.7,0.2-1.4,0.3-2,0.3c-0.8,0-1.6-0.1-2.4-0.1c-0.3,0-0.3-0.2-0.3-0.6V2.4c0.1-0.5,0-0.4,0.2-0.4
	c1.1,0,1.5,0,2.8,0.1c2.6,0.2,4.3,1.7,4.4,5C267.1,8.8,266.3,11.2,264.5,11.7L264.5,11.7z M273.2,22c-1.2,0-1.3-0.2-1.7-0.8
	c-1.5-2.4-2.1-3.2-3-4.7c-0.9-1.4-1.6-2.5-2.5-3.8c3.1-0.3,5.6-2.5,5.6-5.8c0-4.3-3.5-6.3-7.7-6.3c-1.7,0-4.1,0.2-5.9,0.2
	c-1.5,0-2.4-0.1-4-0.1c-0.3,0-0.5,0.3-0.5,0.5c0,0.1,0,0.2,0.1,0.4c0.1,0.1,0.3,0.2,0.4,0.2h1.2c0.4,0,0.7,0.4,0.7,1.5v17.2
	c0,1.3-0.1,1.5-0.6,1.5H254c-0.3,0-0.6,0.3-0.6,0.5c0,0.1,0,0.3,0.1,0.4c0.1,0.1,0.3,0.2,0.4,0.2c1.6,0,2.5-0.1,4-0.1
	c1.4,0,2.2,0,3.5,0.1c0.2,0,0.3,0,0.4-0.1c0.1-0.1,0.2-0.3,0.2-0.4c0-0.3-0.3-0.5-0.6-0.5c-0.5,0-0.8-0.1-1.2-0.1
	c-0.5-0.1-0.5-0.2-0.6-1.3v-7.3c0.1-0.5,0-0.4,0.3-0.5c0.3,0,0.7,0.1,1,0.2c1,0.6,1.5,1.1,3.2,4.1c1.2,2.1,3,5.1,3.4,5.7l0.1,0.2
	l0.2,0c0.7,0,1.8-0.1,2.9-0.1c0.6,0,1,0,1.5,0c0.2,0,0.5,0,0.8,0c0.2,0,0.3,0,0.4-0.1c0.1-0.1,0.2-0.3,0.2-0.4
	C273.8,22.3,273.5,22,273.2,22L273.2,22z M236,14.1c-1.8,0.1-3,0.1-5,0.1c-0.6,0-1.4,0-1.9,0c0.5-1.2,1.3-3.3,2.1-5.2
	c0.4-0.8,0.9-1.8,1.2-2.4c0.1,0.2,0.2,0.4,0.3,0.6c1.2,2.6,1.8,3.9,3,6.6C236,13.8,236,14,236,14.1L236,14.1z M244.9,22
	c-0.7-0.1-1-0.4-1.8-1.9c-1.2-2.4-2.4-5.3-3.9-8.7c-1.7-4-3.3-7.3-4.4-10.4c0-0.2-0.2-0.7-0.7-0.6c-0.5,0-0.6,0.4-0.7,0.6
	c-1.8,4.4-2.9,6.7-4.8,11c-1.6,3.5-3.7,8.4-4,9.1c-0.2,0.4-0.4,0.7-0.5,0.9c-0.4,0-0.6,0.1-1.1,0.1c-0.3,0-0.6,0.2-0.6,0.5
	c0,0.1,0,0.3,0.1,0.4c0.1,0.1,0.3,0.2,0.4,0.2c1.2,0,1.9-0.1,3-0.1c1.1,0,1.8,0.1,3,0.1c0.3,0,0.6-0.3,0.6-0.5
	c0-0.3-0.3-0.5-0.6-0.5c-0.5,0-1-0.1-1.3-0.1c-0.1-0.3-0.2-0.6-0.2-1.1c0-0.3,0-0.6,0.1-1.1c0.2-1.6,0.3-2.3,0.8-3.8l0.2-0.6h7.9
	l0.4,0.9c0.8,1.7,1.2,2.7,1.9,4.5c0.1,0.3,0.2,0.5,0.2,0.7c0,0.3,0,0.4-0.4,0.5c-0.2,0.1-0.4,0.1-0.7,0.1c-0.1,0-0.2,0-0.4,0.1
	c-0.1,0.1-0.2,0.3-0.2,0.4c0,0.1,0.1,0.3,0.2,0.4c0.1,0.1,0.3,0.1,0.4,0.1c1.5,0,2.4-0.2,3.9-0.2c1.2,0,1.6,0.1,3,0.2
	c0.2,0,0.3,0,0.4-0.1c0.2-0.1,0.2-0.3,0.2-0.4C245.5,22.2,245,22.1,244.9,22L244.9,22z M307.8,1.8h0.9c0.3,0,0.5-0.3,0.5-0.5
	c0-0.1,0-0.2-0.1-0.4c-0.1-0.1-0.3-0.2-0.4-0.2c-1.5,0-2.3,0.1-3.8,0.1c-1.4,0-2.2-0.1-3.6-0.1c-0.3,0-0.5,0.3-0.5,0.5
	c0,0.2,0.2,0.5,0.5,0.5h0.9c0.4,0,0.9,0.5,0.9,1.5l0,7h-12.4v-7c0-1,0.5-1.5,0.9-1.5h0.9c0.3,0,0.5-0.3,0.5-0.5
	c0-0.2-0.2-0.5-0.5-0.5c-1.6,0-2.5,0.1-4,0.1c-1.3,0-2.1-0.1-3.5-0.1c-0.3,0-0.5,0.3-0.5,0.5c0,0.2,0.2,0.5,0.5,0.5h0.9
	c0.3,0,0.7,0.4,0.7,1.5v17c0,1.5-0.2,1.7-0.6,1.7c-0.4,0-0.7,0-1.1,0c-0.3,0-0.5,0.3-0.5,0.5c0,0.2,0.2,0.5,0.5,0.5
	c1.4,0,2.2-0.1,3.6-0.1c1.5,0,2.4,0.1,3.9,0.1c0.3,0,0.6-0.2,0.6-0.5c0-0.3-0.3-0.5-0.6-0.5c-0.4,0-0.6,0-1,0
	c-0.4,0-0.7-0.3-0.7-1.7v-8.7h12.4v8.7c0,1.4-0.5,1.7-0.9,1.7c-0.4,0-0.6,0-0.9,0c-0.3,0-0.5,0.3-0.5,0.5c0,0.2,0.2,0.5,0.5,0.5
	c1.4,0,2.2-0.1,3.6-0.1c1.5,0,2.3,0.1,3.8,0.1c0.3,0,0.5-0.3,0.5-0.5c0-0.1,0-0.2-0.1-0.4c-0.1-0.1-0.3-0.2-0.4-0.2
	c-0.4,0-0.6,0-0.9,0c-0.4,0-0.7-0.4-0.7-1.7l0-17C307.1,2.2,307.4,1.8,307.8,1.8L307.8,1.8z M430.5,16.4
	C430.5,16.4,430.5,16.4,430.5,16.4c-0.4,0-0.6,0.3-0.7,0.5c-0.4,1.5-0.3,0.9-0.7,2c-0.6,0.6-1.9,1.7-2.9,2.1c-1.1,0.5-3,1-7.1,1
	c-0.8,0-1.1-0.5-1.1-1.3v-8.4h0.4h2c1.9,0,2.9,0.6,3.5,1.4v1.8c0,0.3,0.2,0.7,0.6,0.7c0.1,0,0.3,0,0.4-0.2c0.1-0.1,0.1-0.3,0.1-0.4
	V7.9c0-0.2,0-0.3-0.1-0.5c-0.1-0.2-0.3-0.2-0.4-0.2c-0.2,0-0.3,0.1-0.4,0.2c-0.1,0.1-0.1,0.3-0.1,0.4v1.3c-0.6,1.2-1.7,2-3.5,2
	c-0.4,0-2,0-2.1,0c-0.2,0-0.2,0-0.2,0c0,0,0-0.1,0-0.4V3.3c0-0.8,0.3-1.4,1.1-1.4h2.7c2.4,0,4.8,1.1,6.3,2.6l0.3,0.3
	c0.2,0.7,0.5,1.9,0.6,2.2c0,0.1,0.2,0.4,0.5,0.4c0,0,0.1,0,0.1,0c0.2,0,0.5-0.3,0.5-0.5c0,0,0-0.1,0-0.1c-0.4-2.4-0.6-3.7-0.9-6.1
	c0-0.3-0.2-0.7-0.6-0.7c-0.4,0-0.7,0.4-0.7,0.7c-0.1,0-0.3,0-0.7,0h-14.7c-0.3,0-0.5,0.3-0.5,0.5c0,0.1,0,0.2,0.1,0.4
	c0.1,0.1,0.3,0.2,0.4,0.2h0.9c0.3,0,0.7,0.4,0.7,1.5v17c0,1.5-0.2,1.7-0.6,1.7c-0.4,0-0.7,0-1.1,0c-0.3,0-0.5,0.3-0.5,0.5
	c0,0.2,0.2,0.5,0.5,0.5c0.5,0,2.5,0,4.7,0c1.1,0,2.2,0,3.2,0c1.6,0,3.6,0.1,5.3,0.1c0.8,0,1.5,0,2.1,0.1c0.2,0,0.4,0,0.6,0
	c0.1,0.3,0.3,0.5,0.6,0.5c0,0,0.1,0,0.1,0c0.3,0,0.6-0.2,0.6-0.5c0.5-2.6,0.8-3.7,1.4-6.1c0-0.1,0-0.2,0-0.3
	C431,16.8,430.8,16.5,430.5,16.4L430.5,16.4z M376.4,0.8c-1.3,0-1.8,0.2-3,0.1c-1.2,0-2-0.1-3.1-0.1c-0.1,0-0.3,0-0.4,0.1
	c-0.1,0.1-0.2,0.3-0.2,0.4c0,0.1,0,0.3,0.2,0.4c0.1,0.1,0.3,0.1,0.4,0.1c0.4,0,0.9,0.1,1.5,0.1c0.8,2,1,3.6,1,12.3v0.5
	c0,4.3-2.3,7.3-7.2,7.3c-4.9,0-6.5-2.9-6.6-7V3.3c0-0.9,0.5-1.5,0.9-1.5h0.9c0.3,0,0.5-0.3,0.5-0.5c0-0.2-0.2-0.5-0.5-0.5
	c-1.6,0-2.3,0.1-3.8,0.1c-1.3,0-2.3-0.1-3.6-0.1c-0.3,0-0.5,0.3-0.5,0.5c0,0.2,0.2,0.5,0.5,0.5h0.9c0.3,0,0.7,0.5,0.7,1.5V15
	c0,3,1,5.1,2.7,6.5c1.8,1.4,4.3,1.9,7.4,1.9h0c3,0,5.2-0.8,6.7-2.4c1.4-1.5,2.1-3.7,2.1-6.3v-0.5c0-8.9,0.3-10.8,1.1-12.3
	c0.5-0.1,1-0.1,1.5-0.1c0.3,0,0.6-0.2,0.6-0.5C377,1,376.7,0.8,376.4,0.8L376.4,0.8z M331.4,22.2c-5.3,0-8.1-4-8.1-10.4
	c0-6.3,2.8-10.1,7.9-10.2c5.3,0,8.1,3.8,8.1,10.2C339.3,17.7,336.8,22.2,331.4,22.2L331.4,22.2z M331.2,0.5c-6.4,0-12.4,4-12.4,11.4
	c0,7.3,5.9,11.6,12.5,11.6c6.6,0,12.4-4.5,12.4-11.6C343.7,4.5,337.8,0.5,331.2,0.5L331.2,0.5z M397,10.3l-5.5-1.2
	c-1.6-0.4-3-1.3-3-3.4c0-2.1,2-4,5-4c2.8,0,5.4,1.9,6.4,4.7c0.1,0.4,0.1,0.7,0.2,1.1c0,0.3,0.3,0.6,0.6,0.5c0.3,0,0.5-0.3,0.5-0.6
	c0,0,0-0.1,0-0.1c-0.1-0.5-0.3-1.6-0.5-2.9c-0.1-1-0.2-2.2-0.2-3.2c0-0.4-0.3-0.6-0.6-0.6c-0.3,0-0.5,0.3-0.6,0.5
	c-1.1-0.2-3.1-0.6-5.7-0.6c-4,0-7.7,2.5-7.8,7c0,3.6,2.1,5.7,5.1,6.3l5.2,1.1c2.2,0.5,3,1.4,3,3.3c0,2.3-2.1,4.2-5.2,4.2
	c-3.9,0-5.6-2.6-6.4-4.7c-0.1-0.6-0.1-1.1-0.2-1.8c0-0.4-0.4-0.5-0.6-0.5c-0.3,0-0.6,0.3-0.6,0.6c0,0.1,0,0.1,0,0.1
	c0.1,0.8,0.1,2,0.2,3.4c0,0.5,0,1.1,0,1.7c0,0.6,0,1.1,0,1.7c0,0.2,0,0.4,0.2,0.5c0.1,0.1,0.3,0.1,0.4,0.1c0.3,0,0.5-0.3,0.5-0.5
	c0-0.1,0.1-0.2,0.1-0.2c1.9,0.5,3.7,0.8,6.4,0.8c4,0,8.1-2.5,8.1-7.4C402.2,12.5,399.8,10.9,397,10.3L397,10.3z M215,16.4
	C215,16.4,214.9,16.4,215,16.4c-0.4,0-0.6,0.3-0.7,0.5c-0.4,1.5-0.3,0.9-0.7,2c-0.6,0.6-1.9,1.7-2.9,2.1c-1.1,0.5-3,1-7.1,1
	c-0.8,0-1.1-0.5-1.1-1.3v-8.4h0.4c1.1,0,0.5,0,2,0c1.9,0,2.9,0.6,3.5,1.4v1.8c0,0.3,0.2,0.7,0.6,0.7c0.1,0,0.3,0,0.4-0.2
	c0.1-0.1,0.1-0.3,0.1-0.5V7.9c0-0.2,0-0.3-0.1-0.5c-0.1-0.2-0.3-0.2-0.4-0.2c-0.2,0-0.3,0.1-0.4,0.2c-0.1,0.1-0.1,0.3-0.1,0.5v1.3
	c-0.6,1.2-1.7,2-3.5,2h-2.1c-0.2,0-0.2,0-0.2,0c0,0,0-0.1,0-0.4V3.3c0-0.8,0.2-1.4,1.1-1.4h2.7c2.4,0,4.8,1.1,6.3,2.6l0.3,0.3
	c0.2,0.7,0.5,1.9,0.6,2.2c0.1,0.1,0.2,0.4,0.5,0.4c0,0,0.1,0,0.1,0c0.2,0,0.5-0.2,0.5-0.5c0,0,0-0.1,0-0.1c-0.4-2.4-0.6-3.7-0.9-6
	c0-0.3-0.2-0.7-0.6-0.7c-0.4,0-0.6,0.4-0.7,0.7c-0.1,0-0.3,0-0.7,0h-14.7c-0.3,0-0.5,0.3-0.5,0.5c0,0.1,0,0.2,0.1,0.4
	c0.1,0.1,0.3,0.2,0.4,0.2h0.9c0.3,0,0.7,0.4,0.7,1.5v17c0,1.5-0.2,1.7-0.6,1.7h-1.1c-0.3,0-0.5,0.3-0.5,0.5c0,0.2,0.2,0.5,0.5,0.5
	c0.5,0,2.5,0,4.7,0c1.1,0,2.2,0,3.2,0c1.6,0,3.6,0.1,5.3,0.1c0.8,0,1.5,0,2.1,0.1c0.2,0,0.4,0,0.6,0c0.1,0.3,0.3,0.5,0.6,0.5
	c0,0,0.1,0,0.1,0c0.3,0,0.6-0.2,0.6-0.5c0.5-2.5,0.8-3.7,1.4-6.1c0-0.1,0-0.2,0-0.3C215.5,16.8,215.3,16.5,215,16.4L215,16.4z
	 M59.7,16.4C59.7,16.4,59.6,16.4,59.7,16.4c-0.4,0-0.6,0.3-0.7,0.5c-0.4,1.5-0.3,0.9-0.7,2c-0.6,0.6-1.9,1.7-2.9,2.1
	c-1.1,0.5-3,1-7.1,1c-0.8,0-1.1-0.5-1.1-1.3v-8.4h0.4h2c1.9,0,2.9,0.6,3.5,1.4v1.8c0,0.3,0.2,0.7,0.6,0.7c0.1,0,0.3,0,0.4-0.2
	c0.1-0.1,0.1-0.3,0.1-0.5V7.9c0-0.2,0-0.3-0.1-0.5s-0.3-0.2-0.4-0.2c-0.2,0-0.3,0.1-0.4,0.2c-0.1,0.1-0.1,0.3-0.1,0.4v1.3
	c-0.6,1.2-1.7,2-3.5,2h-2.1c-0.1,0-0.1,0-0.2,0l0,0c0,0,0-0.2,0-0.4V3.3c0-0.8,0.2-1.4,1.1-1.4H51c2.4,0,4.8,1.1,6.3,2.6l0.3,0.3
	c0.2,0.7,0.6,1.9,0.6,2.2c0.1,0.1,0.2,0.4,0.5,0.4c0,0,0.1,0,0.1,0c0.2,0,0.5-0.2,0.5-0.5c0,0,0-0.1,0-0.1c-0.4-2.3-0.6-3.7-0.9-6
	c0-0.3-0.2-0.7-0.6-0.7c-0.4,0-0.7,0.4-0.7,0.7c-0.1,0-0.3,0-0.7,0H41.6c-0.3,0-0.5,0.3-0.5,0.5c0,0.1,0,0.2,0.1,0.4
	c0.1,0.1,0.3,0.2,0.4,0.2h0.9c0.3,0,0.7,0.4,0.7,1.5v17c0,1.5-0.2,1.7-0.6,1.7h-1.1c-0.3,0-0.5,0.3-0.5,0.5c0,0.2,0.2,0.5,0.5,0.5
	c0.5,0,2.5,0,4.7,0c1.1,0,2.2,0,3.2,0c1.6,0,3.6,0.1,5.3,0.1c0.8,0,1.5,0,2.1,0.1c0.2,0,0.4,0,0.6,0c0.1,0.3,0.3,0.5,0.6,0.5
	c0,0,0.1,0,0.1,0c0.3,0,0.6-0.2,0.6-0.5c0.5-2.6,0.8-3.7,1.4-6.1c0-0.1,0-0.2,0-0.3C60.2,16.8,60,16.5,59.7,16.4L59.7,16.4z
	 M104.8,0.5c-1.1,0-2.1,0.9-2.1,2c0,1.1,0.7,2.1,1.7,2.1c0.4,0,0.7-0.1,1-0.2C105.3,5,104.7,6,103.6,7c-0.1,0.1-0.2,0.3-0.2,0.4
	c0,0.1,0,0.2,0.1,0.3c0.1,0.1,0.2,0.3,0.4,0.3h0c0.1,0,0.3-0.1,0.3-0.2c1.7-1.5,2.8-2.8,2.8-5.1C107.1,1.5,106.1,0.5,104.8,0.5
	L104.8,0.5z M29.9,0.5c-1.1,0-1.8,0-2.6,0c-0.4,0-0.9,0-1.4,0L25,0.5l-0.2,0l-0.1,0.2c-1.9,3.3-3.1,5.2-5.1,8.5
	c-1.4,2.3-2.3,3.7-3.7,5.8c-1.9-2.7-3.1-4.4-5-7.2C9.1,5,8,3.4,6.3,0.6L6.2,0.5L2.3,0.5H0.5C0.3,0.5,0,0.7,0,1
	c0,0.1,0.1,0.3,0.2,0.4c0.1,0.1,0.2,0.1,0.3,0.1c0.3,0,0.6,0.1,0.9,0.1c0.1,0,1.5,1.2,1.9,1.7v4c0,4.1-0.1,7.6-0.4,10.3
	c-0.2,2.4-0.6,4.1-0.9,4.5c-0.6,0-1.1,0.1-1.6,0.1c-0.2,0-0.6,0.2-0.6,0.5c0,0.3,0.4,0.5,0.6,0.5C2,23.1,2.7,23,4,23
	c1.3,0,2.1,0.1,3.5,0.1c0.2,0,0.6-0.1,0.6-0.5c0-0.3-0.4-0.5-0.6-0.5c-0.6,0-1-0.1-1.7-0.2C5,20.7,4.6,13.4,4.6,8c0-0.5,0-1.2,0-1.8
	c0-0.5,0-1.1,0-1.5l0.3,0.4c1,1.3,5.2,7.8,8.7,13.3c0.2,0.3,0.4,0.6,0.8,0.7c0.4,0,0.6-0.3,0.8-0.7c0.3-0.5,3.4-5.3,5.4-8.7
	C22.1,7.5,23,6,24.2,3.9c0,1.7,0.1,4.7,0.1,7.2c0,3.4-0.1,7.9-0.1,8.8c-0.1,1.8-0.4,2-1.2,2.1c-0.4,0.1-0.7,0.1-1.1,0.1
	c-0.2,0-0.5,0.2-0.5,0.5c0,0.1,0,0.3,0.2,0.4c0.1,0.1,0.3,0.1,0.4,0.1c1.5,0,2.4-0.1,3.9-0.1c1.5,0,2.3,0.1,3.9,0.1
	c0.2,0,0.6-0.1,0.6-0.5c0-0.1,0-0.3-0.2-0.4c-0.1-0.1-0.3-0.1-0.4-0.1c-0.4,0-0.6,0-1-0.1c-0.7-0.1-0.9-0.7-0.9-1.2c0-0.7,0-4,0-7.2
	c0-0.8,0-1.7,0-2.4C27.9,8,28,4,28,3.1c0-0.7,0.6-1.5,1-1.6c0.4-0.1,0.5-0.1,0.9-0.1c0.1,0,0.5-0.1,0.5-0.4c0-0.1-0.1-0.3-0.2-0.4
	C30.2,0.6,30.1,0.6,29.9,0.5L29.9,0.5z M95.3,0.8c-1.3,0-1.8,0.1-2.8,0.1c-1.2,0-1.6-0.1-2.7-0.1c-0.3,0-0.6,0.3-0.6,0.5
	c0,0.1,0,0.3,0.1,0.4c0.1,0.1,0.3,0.2,0.4,0.2c0.5,0,0.8,0,1.3,0.1c0,0,0,0,0,0c0.6,1.2,0.9,9,0.9,13.4v1.8L76.6,0.8l-0.1,0
	c0,0-1.5-0.1-2.4-0.1c-1.1,0-1.6,0-2.8,0c-0.3,0-0.5,0.3-0.5,0.5c0,0.1,0,0.3,0.1,0.4c0.1,0.1,0.3,0.2,0.4,0.2h0.6
	c0.3,0,0.4,0,1.8,1.6v5.1c0,3.6-0.1,7-0.2,9.4c-0.1,1.2-0.2,2.3-0.3,3c-0.1,0.4-0.1,0.6-0.2,0.8c0,0.1-0.1,0.2-0.1,0.2c0,0,0,0,0,0
	c-0.4,0-0.7,0-1.2,0c-0.3,0-0.6,0.3-0.6,0.5c0,0.3,0.2,0.5,0.6,0.5c1.2,0,1.7-0.1,2.7-0.1c1,0,2.1,0.1,2.9,0.1
	c0.3,0,0.6-0.2,0.6-0.5c0-0.3-0.3-0.5-0.6-0.5c-0.4,0-0.8,0-1.3-0.1c0,0-0.1-0.2-0.2-0.4c-0.7-2.1-1.1-9.7-1.1-13v-4
	c14.6,15.7,14.1,15.2,17.2,18.5l0.1,0.1h0.1c0,0,0.1,0,0.2,0c0.1,0,0.3,0,0.5-0.1c0.2-0.1,0.3-0.3,0.3-0.6v-9c0-9.1,0.7-11.3,1-11.7
	c0.5,0,0.8,0,1.2,0c0.3,0,0.6-0.3,0.6-0.5S95.6,0.8,95.3,0.8L95.3,0.8z M188,0.7c-1.4,0-1.5,0.1-2.9,0.1c-1.3,0-2.1-0.1-3.4-0.1
	c-0.2,0-0.6,0-0.7,0.5c0,0.5,0.5,0.5,0.7,0.5c0.4,0,1.1,0.1,1.6,0.1c0.1,0.2,0.1,0.4,0.1,0.8c0,0.5,0,0.9-0.2,1.7
	c-0.5,2.2-1.2,4.2-2.4,6.6c-2.1,4.4-3.2,6.6-3.7,7.7c-2.3-4.6-6.5-13.8-7-15.4c-0.1-0.2-0.1-0.4-0.1-0.5c0-0.5,0.2-0.7,0.7-0.9
	c0.3-0.1,0.5-0.1,0.8-0.1c0.2,0,0.6-0.1,0.6-0.5c0-0.3-0.4-0.5-0.6-0.5c-1.7,0-2.6,0.2-4.3,0.2c-1.6,0-2.6-0.2-4-0.2
	c-0.2,0-0.6,0.1-0.6,0.5c0,0.4,0.5,0.5,0.6,0.5c0.2,0,0.5,0,0.8,0.1c1,0.2,1.5,0.8,2,1.9c1.2,2.4,2.5,5.5,4.3,8.9l0.1,0.1
	c-0.2,0.4-0.9,1.8-1.4,2.6c-0.5,1-1.3,2.3-1.8,3.2c-2.8-5.4-5.5-11.4-7-15.2c-0.1-0.2-0.1-0.4-0.1-0.5c0-0.5,0.3-0.7,0.9-0.9
	c0.3-0.1,0.5-0.1,0.8-0.1c0.2,0,0.6-0.1,0.6-0.5c-0.1-0.5-0.5-0.4-0.6-0.5c-1.7,0-2.6,0.2-4.3,0.2c-1.6,0-2.6-0.2-4.2-0.2
	c-0.2,0-0.6,0.1-0.6,0.5c0,0.4,0.5,0.5,0.6,0.5c0.4,0,0.6,0,1,0.1c1,0.3,1.3,0.9,1.9,2c1.4,2.4,2.7,5.4,4.3,9
	c1.9,4.2,3.3,7.1,4.4,10c0.4,0.9,0.6,1.3,1,1.3c0,0,0,0,0.1,0c0.5-0.1,0.4-0.4,0.6-0.6c0.1-0.2,0.2-0.5,0.3-0.6
	c1.6-3.4,2.1-4.4,4-7.9l0.4-0.7l0.6,1.4c1.4,3.1,1.8,4.1,3.2,7.4c0.2,0.5,0.3,0.9,0.9,1.1c0,0,0,0,0.1,0l0.2,0v-0.1
	c0-0.1,0.1-0.1,0.1-0.2c0.2-0.3,0.5-1,0.7-1.3c2.1-4.5,2.7-5.8,4.8-10.3c1.7-3.6,4.2-8.7,4.5-9.3c0.2-0.4,0.6-0.9,0.6-0.9
	c0,0,0,0,0,0c0.1-0.1,0.7-0.3,1.2-0.3c0.1,0,0.3,0,0.4-0.1c0.1-0.1,0.2-0.3,0.2-0.4C188.5,0.6,188.1,0.7,188,0.7L188,0.7z
	 M125.9,10.3l-5.5-1.2c-1.6-0.4-3-1.3-3-3.4c0-2.1,2-4,5-4c2.8,0,5.4,1.9,6.4,4.7c0.1,0.4,0.1,0.7,0.2,1.1c0.1,0.3,0.3,0.6,0.6,0.5
	c0.3,0,0.5-0.3,0.5-0.6c0,0,0-0.1,0-0.1c-0.1-0.5-0.3-1.6-0.5-2.9c-0.1-1-0.2-2.2-0.2-3.2c0-0.4-0.3-0.6-0.6-0.6
	c-0.3,0-0.5,0.3-0.6,0.5c-1.1-0.2-3.1-0.6-5.7-0.6c-4,0-7.8,2.5-7.8,7c0,3.6,2.1,5.7,5.1,6.3l5.2,1.1c2.2,0.5,3,1.4,3,3.3
	c0,2.3-2.1,4.2-5.2,4.2c-3.9,0-5.6-2.6-6.4-4.7c-0.1-0.6-0.1-1.1-0.2-1.8c0-0.4-0.4-0.5-0.6-0.5c-0.3,0-0.6,0.3-0.6,0.6
	c0,0,0,0.1,0,0.1c0.1,0.8,0.1,2,0.2,3.4c0,0.5,0,1.1,0,1.7c0,0.6,0,1.1,0,1.7c0,0.2,0,0.3,0.2,0.5c0.1,0.1,0.3,0.1,0.4,0.1
	c0.3,0,0.5-0.3,0.5-0.5c0-0.1,0.1-0.2,0.1-0.2c1.9,0.5,3.7,0.8,6.4,0.8h0c4,0,8.1-2.5,8.1-7.4C131.1,12.5,128.7,10.9,125.9,10.3
	L125.9,10.3z M437.3,3.2c-0.1,0.1-0.3,0.1-0.5,0.1h-1.1V2.2h1.2c0.2,0,0.3,0,0.4,0.1c0.2,0.1,0.3,0.3,0.3,0.5
	C437.5,3,437.4,3.2,437.3,3.2L437.3,3.2z M438,5c0-0.1,0-0.2,0-0.3l0-0.5c0-0.2,0-0.4-0.1-0.5c-0.1-0.1-0.2-0.2-0.3-0.2
	c0.2-0.1,0.3-0.2,0.4-0.3c0.1-0.1,0.1-0.3,0.1-0.5c0-0.4-0.2-0.7-0.5-0.9c-0.2-0.1-0.4-0.1-0.7-0.1h-1.6v3.6h0.5V3.8h1.1
	c0.2,0,0.3,0,0.4,0.1c0.2,0.1,0.2,0.2,0.3,0.5l0,0.6c0,0.1,0,0.2,0,0.3c0,0,0,0.1,0,0.1h0.6V5.3C438.1,5.2,438,5.1,438,5L438,5z
	 M166,24C166,24,166,24,166,24C166,24,166,24,166,24C166,24,165.9,24,166,24L166,24z"/>
</svg>
